<svg width="31" height="31" fill="none" xmlns="http://www.w3.org/2000/svg"><path fill-rule="evenodd" clip-rule="evenodd" d="M26.534 4.7A14.785 14.785 0 0 0 16.007.334C7.803.335 1.127 7.01 1.124 15.215a14.854 14.854 0 0 0 1.986 7.44L1 30.367l7.889-2.07a14.868 14.868 0 0 0 7.112 1.812h.006c8.201 0 14.878-6.676 14.881-14.882A14.792 14.792 0 0 0 26.534 4.7ZM16.007 27.594h-.005a12.35 12.35 0 0 1-6.296-1.724l-.451-.268-4.682 1.228 1.25-4.564-.294-.468a12.34 12.34 0 0 1-1.892-6.583C3.64 8.396 9.19 2.848 16.012 2.848c3.303.001 6.409 1.29 8.744 3.628a12.295 12.295 0 0 1 3.62 8.75c-.003 6.82-5.552 12.37-12.37 12.37Z" fill="#fff"/><path fill-rule="evenodd" clip-rule="evenodd" d="M22.791 18.331c-.372-.186-2.2-1.085-2.54-1.21-.341-.124-.59-.186-.837.187-.248.372-.96 1.21-1.178 1.458-.216.248-.434.279-.805.093-.372-.187-1.57-.58-2.99-1.846-1.106-.986-1.852-2.204-2.07-2.576-.216-.372-.022-.573.164-.759.167-.166.372-.434.558-.651.186-.217.248-.372.372-.62.124-.249.062-.466-.031-.652s-.837-2.016-1.147-2.76c-.302-.726-.608-.628-.837-.64-.216-.01-.464-.012-.712-.012-.248 0-.65.093-.992.465-.34.372-1.301 1.272-1.301 3.102 0 1.83 1.332 3.598 1.518 3.847.186.248 2.622 4.004 6.352 5.614.887.383 1.58.612 2.12.784.89.283 1.702.243 2.342.147.715-.107 2.2-.9 2.51-1.768.31-.869.31-1.613.217-1.768-.093-.155-.341-.249-.713-.435Z" fill="#fff"/></svg>