<svg width="12" height="12" viewBox="0 0 12 12" fill="none" xmlns="http://www.w3.org/2000/svg">
<g clip-path="url(#clip0)">
<path d="M11.9686 4.60289C11.8896 4.3599 11.6741 4.18787 11.4201 4.16489L7.95607 3.8504L6.58706 0.64527C6.48599 0.409793 6.256 0.257812 6.00002 0.257812C5.74403 0.257812 5.51395 0.409793 5.41352 0.64527L4.04451 3.8504L0.579912 4.16489C0.32594 4.18833 0.110879 4.36036 0.0314104 4.60289C-0.047601 4.84587 0.0253678 5.11239 0.217449 5.28085L2.83599 7.57693L2.06392 10.9774C2.00743 11.2275 2.10447 11.486 2.31194 11.636C2.42345 11.717 2.55446 11.7575 2.68593 11.7575C2.79891 11.7575 2.91198 11.7275 3.01297 11.667L6.00002 9.88099L8.98652 11.667C9.2056 11.798 9.48109 11.786 9.6881 11.636C9.89556 11.486 9.99261 11.2275 9.93612 10.9774L9.16404 7.57693L11.7826 5.28085C11.9746 5.11239 12.0476 4.84642 11.9686 4.60289Z" fill="#86B92D"/>
</g>
<defs>
<clipPath id="clip0">
<rect width="12" height="12" fill="white"/>
</clipPath>
</defs>
</svg>
